<?xml version="1.0" encoding="utf-8"?>
<!-- Generator: Adobe Illustrator 26.5.0, SVG Export Plug-In . SVG Version: 6.00 Build 0)  -->
<svg version="1.1" id="Ebene_1" xmlns="http://www.w3.org/2000/svg" xmlns:xlink="http://www.w3.org/1999/xlink" x="0px" y="0px"
	 viewBox="0 0 200 200" style="enable-background:new 0 0 200 200;" xml:space="preserve">
<style type="text/css">
	.st0{fill:#89CDD3;}
</style>
<path class="st0" d="M147.3,129.8h-44.8c-2.7,0-5,2.2-5,5c0,2.7,2.2,5,5,5h34.8c5.5,0,9.9,4.5,9.9,9.9s-4.5,9.9-9.9,9.9H97.5
	c-2.7,0-5,2.2-5,5c0,2.7,2.2,5,5,5h29.8c5.5,0,9.9,4.5,9.9,9.9s-4.5,9.9-9.9,9.9H67.7c-2.1,0-8.6-0.7-11.4-3.5
	c-5.4-5.4-13.5-31.4-13.5-56.2C42.8,97.1,53,87,56.3,83.6c2.8-2.8,9.3-3.5,11.4-3.5h69.6c5.5,0,9.9,4.5,9.9,9.9s-4.5,9.9-9.9,9.9
	h-34.8c-2.7,0-5,2.2-5,5c0,2.7,2.2,5,5,5h44.8c5.5,0,9.9,4.5,9.9,9.9S152.7,129.8,147.3,129.8L147.3,129.8z M77.6,20.4
	c0-5.5,4.4-9.9,9.9-10c5.5,0,9.9,4.4,9.9,9.9v0v49.7H77.6V20.4z M167.1,119.9c0-8.4-5.4-16-13.3-18.8c6.1-9.1,3.7-21.5-5.4-27.6
	c-3.3-2.2-7.1-3.4-11.1-3.4h-29.8V20.4c0-11-8.9-19.9-19.9-19.9c-11,0-19.9,8.9-19.9,19.9v49.7c-1.2,0-12.2,0.2-18.4,6.4
	c-5.1,5.1-8.9,11.3-11.3,18.1c-3.7,11.3-5.4,23.2-5.1,35.1c0.1,12.8,1.8,25.4,5,37.8c1.9,7.1,5.8,19.8,11.4,25.4
	c6.3,6.3,17.2,6.4,18.4,6.4h59.7c11,0,19.9-8.9,19.9-19.9c0-3.9-1.2-7.8-3.4-11.1c10.4-3.6,15.8-15,12.2-25.3
	c-0.6-1.6-1.3-3.1-2.3-4.5C161.8,135.8,167.1,128.3,167.1,119.9"/>
</svg>
