<?xml version="1.0" encoding="utf-8"?>
<!-- Generator: Adobe Illustrator 26.5.0, SVG Export Plug-In . SVG Version: 6.00 Build 0)  -->
<svg version="1.1" id="Ebene_1" xmlns="http://www.w3.org/2000/svg" xmlns:xlink="http://www.w3.org/1999/xlink" x="0px" y="0px"
	 viewBox="0 0 200 200" style="enable-background:new 0 0 200 200;" xml:space="preserve">
<style type="text/css">
	.st0{fill:#89CDD3;}
</style>
<path class="st0" d="M55,23.5C30.7,23.2,10.8,42.7,10.5,67c0,31.2,24.6,59.5,45.3,77.8c13.6,11.9,28.3,22.5,43.8,31.6
	c15.6-9.2,30.2-19.8,43.8-31.6c20.7-18.3,45.3-46.6,45.3-77.8c-0.3-24.3-20.2-43.8-44.6-43.6c-17.9,0-35.2,14.4-39.6,27.2
	c-1,2.7-4,4.2-6.7,3.2c-1.5-0.5-2.7-1.7-3.2-3.2C90.2,37.8,72.9,23.5,55,23.5L55,23.5z M99.6,187.5c-0.9,0-1.8-0.2-2.5-0.6
	c-17.2-9.8-33.3-21.3-48.1-34.3c-12.8-11-24-23.7-33.4-37.7C5.2,98.7,0,82.6,0,67c0.4-30,25-54.1,55-53.8c11.1,0.3,21.8,4,30.7,10.6
	c5.4,3.8,10.1,8.5,13.8,13.9c3.8-5.4,8.4-10.1,13.8-13.9c8.9-6.6,19.6-10.3,30.7-10.6c30-0.3,54.7,23.8,55,53.8
	c0,15.6-5.2,31.7-15.5,47.8c-9.3,14-20.6,26.7-33.4,37.7c-14.8,13-31,24.5-48.1,34.3C101.4,187.3,100.5,187.5,99.6,187.5"/>
</svg>
