<?xml version="1.0" encoding="utf-8"?>
<!-- Generator: Adobe Illustrator 26.5.0, SVG Export Plug-In . SVG Version: 6.00 Build 0)  -->
<svg version="1.1" id="Ebene_1" xmlns="http://www.w3.org/2000/svg" xmlns:xlink="http://www.w3.org/1999/xlink" x="0px" y="0px"
	 viewBox="0 0 200 200" style="enable-background:new 0 0 200 200;" xml:space="preserve">
<style type="text/css">
	.st0{fill:#89CDD3;}
</style>
<path class="st0" d="M33.2,185.6c-5.2,5.2-13.7,5.1-18.9-0.1c-2.5-2.5-3.9-5.9-3.9-9.4c0-3.5,1.4-6.9,3.9-9.4l0,0L98,83.2
	c1.5-1.5,2-3.9,1.1-5.9c-2.8-6.1-4.2-12.7-4.2-19.4c0-26.1,21.2-47.3,47.3-47.3c4.1,0,8.1,0.5,12.1,1.5l-26.3,26.3
	c-1,1-1.5,2.3-1.5,3.7v26.3c0,2.9,2.4,5.3,5.3,5.3h26.3c1.4,0,2.7-0.6,3.7-1.5l26.3-26.3c6.6,25.3-8.5,51.2-33.8,57.8
	c-10.5,2.7-21.6,1.8-31.4-2.6c-2-0.9-4.3-0.5-5.9,1.1L33.2,185.6L33.2,185.6z M23.8,200c6.3,0,12.3-2.5,16.8-6.9l0,0l81.1-81.1
	c29.9,11.2,63.3-3.9,74.5-33.8c5.4-14.3,4.9-30.2-1.4-44.1c-1.2-2.6-4.3-3.8-7-2.6c-0.6,0.3-1.1,0.6-1.5,1.1l-30.6,30.6h-18.9V44.3
	l30.7-30.7c2.1-2.1,2-5.4,0-7.4c-0.4-0.4-1-0.8-1.6-1.1C136.8-8,102.4,5.1,89.3,34.4c-3.3,7.4-5,15.4-5,23.4c0,7,1.3,13.9,3.8,20.4
	l-81,81c-9.3,9.3-9.4,24.4-0.2,33.7C11.4,197.5,17.5,200,23.8,200"/>
</svg>
