<?xml version="1.0" encoding="utf-8"?>
<!-- Generator: Adobe Illustrator 26.5.0, SVG Export Plug-In . SVG Version: 6.00 Build 0)  -->
<svg version="1.1" id="Ebene_1" xmlns="http://www.w3.org/2000/svg" xmlns:xlink="http://www.w3.org/1999/xlink" x="0px" y="0px"
	 viewBox="0 0 200 200" style="enable-background:new 0 0 200 200;" xml:space="preserve">
<style type="text/css">
	.st0{fill:#8ACED3;}
</style>
<g id="_0568-rocket">
	<path id="Pfad_2089" class="st0" d="M134.8,90C121.1,90,110,78.9,110,64.9c0-13.7,11.1-24.9,25.1-24.9c13.7,0,24.9,11.1,24.9,24.9
		C160,78.9,148.8,90,134.8,90L134.8,90z M134.8,50c-8.3,0-14.9,6.9-14.9,15.1S126.8,80,135.1,80S150,73.2,150,65.2
		C150,56.9,143.1,50,134.8,50L134.8,50z"/>
	<path id="Pfad_2090" class="st0" d="M5.1,200c-1.4,0-2.6-0.6-3.4-1.4c-1.7-1.4-2-3.4-1.4-5.1c15.4-42.3,31.4-63.7,48-63.7
		c5.7,0.3,11.1,2.6,15.1,6.9c5.4,4.9,8,12.3,6.6,19.4c-3.4,14.9-24.6,29.7-63.4,43.7C6.3,200,5.7,200,5.1,200L5.1,200z M48.3,139.4
		c-4.9,0-10.9,4.3-16.9,12.6c-7.1,10.9-13.1,22.3-17.7,34.3c11.1-4.3,22-9.7,32-16.3c10.6-7.4,13.7-12.9,14.6-16.6
		c0.6-3.7-0.9-7.7-3.7-10C54.5,141.2,51.4,139.7,48.3,139.4L48.3,139.4z"/>
	<path id="Pfad_2091" class="st0" d="M194.8,0c-23.4-0.3-46.9,4-68.6,13.1C110.5,20,96.3,30,84.8,42.9c-2,2.3-4,4.9-5.7,7.1
		c-9.4,0.9-18.6,4.6-26.3,10.3c-8.3,6-16,13.4-22.3,21.4c-7.7,9.7-14.3,20.3-20,31.1c-1.1,2.6-0.3,5.4,2.3,6.6
		c2,0.9,4.3,0.6,5.7-0.9c4-3.7,8.3-6.9,12.9-9.4c9.1-5.1,19.1-8.3,29.7-9.1c3.1,8,12.3,17.7,16.6,22.3c4.3,4.6,14,13.4,22.3,16.6
		c-0.9,10.3-4,20.6-9.1,29.7c-2.6,4.6-5.7,9.1-9.4,12.9c-2,2-2,5.1,0,7.1c0.9,0.9,2.3,1.4,3.4,1.4c0.9,0,1.4-0.3,2.3-0.6
		c10.9-5.7,21.1-12.6,30.9-20.3c8.3-6.3,15.4-14,21.4-22.3c5.7-7.7,9.1-16.9,10.3-26.3c2.3-1.7,4.9-3.7,7.1-5.7
		c12.9-11.4,23.1-25.4,29.7-41.1C196,52,200.5,28.6,200,5.2V0H194.8z M31.1,98c9.4-13.7,24-30.9,40.6-36.3
		c-5.1,8.9-8.9,18.3-11.1,28.6C50.3,90.9,40.3,93.4,31.1,98L31.1,98z M102,168.9c4.6-9.1,7.1-19.1,8-29.4c10-2,19.7-6,28.3-11.1
		C132.8,144.9,115.7,159.4,102,168.9L102,168.9z M150.2,107.4C129.4,125.7,108,130,104.8,130c0,0-2,0-7.7-4
		c-4.6-3.1-8.9-6.9-12.6-10.9c-4-4-7.7-8-10.9-12.6c-4-5.4-4-7.4-4-7.7c0-3.1,4.3-24.6,22.6-45.4C114.5,24.9,148,11.2,190,10
		C188.8,52,175.4,85.7,150.2,107.4L150.2,107.4z"/>
</g>
</svg>
