<?xml version="1.0" encoding="utf-8"?>
<!-- Generator: Adobe Illustrator 26.5.0, SVG Export Plug-In . SVG Version: 6.00 Build 0)  -->
<svg version="1.1" id="Ebene_1" xmlns="http://www.w3.org/2000/svg" xmlns:xlink="http://www.w3.org/1999/xlink" x="0px" y="0px"
	 viewBox="0 0 200 200" style="enable-background:new 0 0 200 200;" xml:space="preserve">
<style type="text/css">
	.st0{fill:#89CDD3;}
</style>
<g>
	<path class="st0" d="M21,60.2l3.5,0.4c0.3,0,2.8,0.3,6.5,0.3c9,0,25.4-1.7,34.9-13c13.2-15.7,6.8-42.7,6.5-43.8l-0.8-3.4l-3.5-0.4
		C67,0.2,40-2.8,26.7,12.9c-13.3,15.7-6.8,42.7-6.5,43.8L21,60.2z M34.5,19.5c7.4-8.7,22.2-9.4,28.7-9.3c1,6.7,2.4,22.3-5.1,31.1
		c-7.4,8.7-22.2,9.4-28.7,9.3C28.4,44,27,28.4,34.5,19.5z"/>
	<path class="st0" d="M143.5,105.6v28.3l-44.7-27.3v27.3l-44.7-27.3v30.7h-2.5L39.7,68.2L1.6,52.4V200h196.8v-60.4L143.5,105.6z
		 M11.8,67.7l18.8,7.8l1.3,7.3H11.8V67.7z M188.2,189.8H11.8V93.1h21.8l9.3,54.4h21.4v-22.7l44.7,27.3v-27.3l44.7,27.3v-28.2
		l34.5,21.4V189.8z"/>
	<path class="st0" d="M133.8,46.2c0,11.9,9.7,21.6,21.6,21.6c11.9,0,21.6-9.7,21.6-21.6s-9.7-21.6-21.6-21.6
		C143.5,24.5,133.8,34.3,133.8,46.2z M166.8,46.2c0,6.3-5.1,11.4-11.4,11.4c-6.3,0-11.4-5.1-11.4-11.4c0-6.3,5.1-11.4,11.4-11.4
		C161.7,34.8,166.8,39.9,166.8,46.2z"/>
	<rect x="151.3" y="5.1" class="st0" width="10.2" height="12.2"/>
	
		<rect x="173.8" y="17.3" transform="matrix(0.7069 -0.7073 0.7073 0.7069 37.0288 134.2608)" class="st0" width="13.5" height="10.2"/>
	<rect x="182.4" y="42" class="st0" width="14.1" height="10.2"/>
	<rect x="114.3" y="42" class="st0" width="14.1" height="10.2"/>
	
		<rect x="173.6" y="64.3" transform="matrix(0.7071 -0.7071 0.7071 0.7071 2.1217 147.1537)" class="st0" width="10.2" height="13.5"/>
	<rect x="149.3" y="73.1" class="st0" width="10.2" height="14.1"/>
	
		<rect x="123.4" y="64.1" transform="matrix(0.7069 -0.7073 0.7073 0.7069 -10.7967 112.3099)" class="st0" width="13.5" height="10.2"/>
	<polygon class="st0" points="140.3,21.8 130.8,12.2 123.6,19.5 133.1,29 	"/>
</g>
</svg>
