<?xml version="1.0" encoding="utf-8"?>
<!-- Generator: Adobe Illustrator 26.5.0, SVG Export Plug-In . SVG Version: 6.00 Build 0)  -->
<svg version="1.1" id="Ebene_1" xmlns="http://www.w3.org/2000/svg" xmlns:xlink="http://www.w3.org/1999/xlink" x="0px" y="0px"
	 viewBox="0 0 200 200" style="enable-background:new 0 0 200 200;" xml:space="preserve">
<style type="text/css">
	.st0{fill:#89CDD3;stroke:#89CDD3;stroke-width:4;stroke-miterlimit:10;}
</style>
<path class="st0" d="M66.1,162c-2.3,0-4.1-1.9-4.1-4.1c0-28.1-22.8-50.9-50.9-50.9c-2.3,0-4.1-1.9-4.1-4.1c0-2.3,1.9-4.1,4.1-4.1
	C39.1,98.6,62,75.8,62,47.8c0-2.3,1.9-4.1,4.1-4.1c2.3,0,4.1,1.9,4.1,4.1c0,28.1,22.8,50.9,50.9,50.9c2.3,0,4.1,1.9,4.1,4.1
	c0,2.3-1.9,4.1-4.1,4.1c-28.1,0-50.9,22.8-50.9,50.9C70.3,160.1,68.4,162,66.1,162z M32.8,102.8c15.1,6,27.2,18.1,33.3,33.3
	c6-15.1,18.1-27.2,33.3-33.3c-15.1-6-27.2-18.1-33.3-33.3C60.1,84.7,48,96.8,32.8,102.8z"/>
<path class="st0" d="M119.9,46.9c-1.4,0-2.5-1.1-2.5-2.5c0-10.2-8.3-18.5-18.5-18.5c-1.4,0-2.5-1.1-2.5-2.5c0-1.4,1.1-2.5,2.5-2.5
	c10.2,0,18.5-8.3,18.5-18.5c0-1.4,1.1-2.5,2.5-2.5c1.4,0,2.5,1.1,2.5,2.5c0,10.2,8.3,18.5,18.5,18.5c1.4,0,2.5,1.1,2.5,2.5
	c0,1.4-1.1,2.5-2.5,2.5c-10.2,0-18.5,8.3-18.5,18.5C122.4,45.8,121.2,46.9,119.9,46.9z M109.4,23.4c4.5,2.3,8.2,5.9,10.4,10.4
	c2.3-4.5,5.9-8.2,10.4-10.4c-4.5-2.3-8.2-5.9-10.4-10.4C117.6,17.5,113.9,21.2,109.4,23.4z"/>
<path class="st0" d="M152.9,200c-1.8,0-3.3-1.5-3.3-3.3c0-18.5-15.1-33.6-33.6-33.6c-1.8,0-3.3-1.5-3.3-3.3s1.5-3.3,3.3-3.3
	c18.5,0,33.6-15.1,33.6-33.6c0-1.8,1.5-3.3,3.3-3.3c1.8,0,3.3,1.5,3.3,3.3c0,18.5,15.1,33.6,33.6,33.6c1.8,0,3.3,1.5,3.3,3.3
	s-1.5,3.3-3.3,3.3c-18.5,0-33.6,15.1-33.6,33.6C156.2,198.5,154.7,200,152.9,200z M132,159.8c9.3,4.1,16.8,11.6,20.9,20.9
	c4.1-9.3,11.6-16.8,20.9-20.9c-9.3-4.1-16.8-11.6-20.9-20.9C148.8,148.2,141.3,155.7,132,159.8z"/>
</svg>
